<svg xmlns="http://www.w3.org/2000/svg"><symbol id="bubble" viewBox="0 0 256 256"><path d="M107.4 157.2l-35.5 18.7-3-4.2 18.5-21.8h13.9l6.1 7.3zm2.9 3.4l8.7 10.5H90.4l19.9-10.5zm46.9-10.7l-17.6 21.2h-15.2l-17.6-21.2h50.4zm-3.5 10.7l19.9 10.5H145l8.7-10.5zm-63.5-30.1c-2.1-4.8-2.5-10.5-2.5-16a45.5 45.5 0 0 1 91 0 50.8 50.8 0 0 1-2.5 16zm-14.5 4.2h115v10.93h-115zm100.9 15.2l18.5 22-3 4-35.7-18.7 6.3-7.3h13.9z"/><path d="M132 0L21.2 64v128L132 256l110.8-64V64zm67.3 173l-4.8 6.9a2.2 2.2 0 0 1-2.7.6l-10.1-5.3H82.2l-10.1 5.3a2.3 2.3 0 0 1-2.7-.6l-4.9-6.9a2.2 2.2 0 0 1 .2-2.5l17.4-20.6h-8.5a2 2 0 0 1-2.1-2.1v-15.2a2 2 0 0 1 2.1-2.1h12.2a58.7 58.7 0 0 1-2.3-16 49.7 49.7 0 0 1 99.4 0 51.9 51.9 0 0 1-2.3 16h12.2a2 2 0 0 1 2.1 2.1v15.1a2 2 0 0 1-2.1 2.1H182l17.2 20.6a2.2 2.2 0 0 1 .1 2.6z"/></symbol><symbol id="dome" viewBox="0 0 256 256"><path d="M84.9 127.8H62.4c6.5-25.4 29-45 55.9-46.7zm5.2 0l30.3-42.5v42.5H90.1zm-26.3 20h56.5v23.33H63.8zm60.8 0h9.5v23.33h-9.5zm13.7 0h42.9v23.33h-42.9zm44.3-20h-58V80.9a62.5 62.5 0 0 1 58 46.9zM51.9 132h141.3v11.56H51.9z"/><path d="M122.5 0L11.7 64v128l110.8 64 110.8-64V64zm90.6 147.8h-27.8v25.4a2 2 0 0 1-2.1 2.1H61.7a2 2 0 0 1-2.1-2.1v-25.4H31.9a2.1 2.1 0 0 1 0-4.2h15.8v-13.7a2 2 0 0 1 2.1-2.1H58a66.7 66.7 0 0 1 64.3-51.1c.2-.2.4-.2.8 0 31.1.2 57 22.1 63.9 51.1h8.2a2 2 0 0 1 2.1 2.1v13.7h15.8a2.1 2.1 0 1 1 0 4.2z"/></symbol><symbol id="stilt" viewBox="0 0 256 256"><path d="M81.9 157.9h13.5v13.24H81.9zm17.6 0h21v13.24h-21zm25.3 0h13.5v13.24h-13.5zm17.6 0h21v13.24h-21zm35.3-45.7H85.3c1.1-27.1 21.7-42 46.2-42s45.2 14.9 46.2 42zm-10 45.7h13.4v13.24h-13.4zm-98.4-41.5v37.2h124.4v-37.2zm112.5 27.1h-51.4a2.1 2.1 0 0 1 0-4.2h51.3a2.1 2.1 0 0 1 0 4.2z"/><path d="M131.5 0L20.7 64v128l110.8 64 110.8-64V64zm66.4 155.7a2 2 0 0 1-2.1 2.1h-10.5V171h10.5a2.1 2.1 0 1 1 0 4.2H67.2a2.1 2.1 0 1 1 0-4.2h10.5v-13.1H67.2a2 2 0 0 1-2.1-2.1v-41.5a2 2 0 0 1 2.1-2.1H81C82.1 82.4 104.4 66 131.5 66s49.4 16.4 50.5 46.2h13.9a2 2 0 0 1 2.1 2.1z"/></symbol></svg>